<svg id="Capa_1" enable-background="new 0 0 512.018 512.018" height="512" viewBox="0 0 512.018 512.018" width="512" xmlns="http://www.w3.org/2000/svg"><g><g><g clip-rule="evenodd" fill-rule="evenodd"><path d="m83.723 135.233c29.179 94.783 112.006 151 172.286 183.215 60.28-32.215 143.107-88.432 172.286-183.215 19.536-63.458-24.558-127.613-82.454-127.715-37.592 0-68.341 25.899-89.832 54.458-21.491-28.559-52.241-54.458-89.833-54.458-57.895.102-101.989 64.257-82.453 127.715zm202.288-24.75v30h30v60h-30v30h-60v-30h-30v-60h30v-30z" fill="#ff5b5b"/><path d="m339.509 504.517 15-137.948 27.598-95.407c3.393-11.729 14.404-19.959 26.654-17.378 12.109 2.551 19.331 14.439 17.379 26.655l-9.215 57.655 42.584-46.81v-127.5c0-16.501 13.5-30 30-30 8.25 0 15 6.752 15 15v172.5l-67.499 130.733v52.5zm-167.001 0-15-137.948-27.598-95.407c-3.393-11.729-14.405-19.959-26.654-17.378-12.109 2.551-19.331 14.439-17.379 26.655l9.215 57.655-42.584-46.81v-127.5c0-16.501-13.5-30-30-30-8.25 0-15 6.752-15 15v172.5l67.5 130.733v52.5z" fill="#f5d9ab"/><path d="m482.009 134.739c2.399-.623 4.913-.955 7.5-.955 8.25 0 15 6.752 15 15v172.5l-67.499 130.733v52.5h-22.5v-60l67.5-130.733v-179.045zm-452 0c-2.399-.623-4.913-.955-7.5-.955-8.25 0-15 6.752-15 15v172.5l67.5 130.733v52.5h22.5v-60l-67.5-130.733z" fill="#f0b582"/><path d="m83.723 135.233c29.179 94.783 112.006 151 172.286 183.215 3.672-1.962 7.428-4.015 11.25-6.159-58.923-33.049-133.635-88.047-161.036-177.056-18.273-59.354 19.122-119.312 71.408-126.904-68.548-9.696-112.993 64.913-93.908 126.904z" fill="#af3244"/></g><g><path d="m399.522 82.528h-15v-15h15zm-30-29.999h-15.001v-15h15.001z" fill="#fff"/></g><path clip-rule="evenodd" d="m286.011 110.483h-60v29.999h-30v60h30v30h60v-30h29.999v-60h-29.999z" fill="#edecf5" fill-rule="evenodd"/></g><g><path d="m380.76 497.018h15v15h-15z"/><path d="m137.115 269.079c-4.677-16.171-19.899-25.907-35.405-22.634-15.656 3.298-25.864 18.75-23.239 35.178l5.246 32.821-23.708-26.062v-124.598c0-20.678-16.822-37.501-37.5-37.501-12.407 0-22.5 10.094-22.5 22.5v174.323l67.5 130.732v58.179h113.36l-15.974-146.906zm-54.607 227.939v-46.823l-67.5-130.732v-170.68c0-4.136 3.365-7.5 7.5-7.5 12.407 0 22.5 10.094 22.5 22.501v130.401l43.03 47.301 8.862 55.447 14.813-2.367-18.43-115.31c-1.362-8.521 3.698-16.485 11.519-18.133 7.736-1.628 15.433 3.582 17.904 12.124l27.417 94.78 14.025 128.99h-81.64z"/><path d="m489.509 126.283c-20.678 0-37.5 16.823-37.5 37.501v124.599l-23.708 26.061 5.246-32.82c2.625-16.428-7.583-31.88-23.239-35.178-15.508-3.273-30.729 6.463-35.405 22.634l-27.599 95.406-.181.626-15.973 146.906h34.608v-15h-17.89l14.025-128.99 27.418-94.78c2.47-8.542 10.17-13.75 17.903-12.124 7.82 1.647 12.88 9.612 11.519 18.133l-18.431 115.311 14.813 2.367 8.862-55.448 43.03-47.3v-130.403c0-12.407 10.094-22.501 22.5-22.501 4.136 0 7.5 3.364 7.5 7.5v170.679l-67.5 130.732v46.823h-18.747v15h33.749v-58.179l67.5-130.732v-174.323c0-12.406-10.094-22.5-22.5-22.5z"/><path d="m435.463 137.44c7.691-24.985 6.469-51.892-3.445-75.764-9.558-23.017-26.254-41.526-47.013-52.12-20.532-10.479-43.259-12.38-65.722-5.503-22.695 6.949-43.947 22.34-63.274 45.798-34.082-41.387-67.808-50.032-90.624-49.821-28.562.315-55.279 14.88-73.301 39.96l12.182 8.754c15.208-21.164 37.545-33.453 61.285-33.715 37.474-.389 66.63 27.754 84.466 51.457l5.993 7.964 5.993-7.964c18.949-25.182 39.699-41.362 61.673-48.09 18.666-5.717 37.517-4.153 54.512 4.521 17.588 8.976 31.786 24.784 39.979 44.513 8.575 20.65 9.627 43.946 2.962 65.597-12.588 40.889-36.961 78.507-72.444 111.809-25.154 23.607-55.501 44.927-92.674 65.095-37.173-20.168-67.52-41.487-92.674-65.095-35.483-33.302-59.857-70.92-72.444-111.809-7.497-24.35-5.312-50.078 6.15-72.445l-13.35-6.842c-13.255 25.867-15.79 55.593-7.137 83.701 13.364 43.411 39.107 83.224 76.515 118.332 26.92 25.266 59.436 47.931 99.404 69.29l3.535 1.89 3.535-1.89c39.968-21.359 72.483-44.024 99.403-69.29 37.408-35.11 63.151-74.922 76.515-118.333z"/><path d="m218.511 102.983v30h-30v75h30v30h75v-30h30v-75h-30v-30zm90 45v45h-30v30h-45v-30h-30v-45h30v-30h45v30z"/></g></g></svg>